<?xml version="1.0" encoding="utf-8"?><!-- Generator: Iparigrafika Gear Generator by Abel Vincze http://geargenerator.com/ --><svg version="1.2" class="svggear" xmlns="http://www.w3.org/2000/svg" xmlns:xlink="http://www.w3.org/1999/xlink" x="0px" y="0px" width="250px" height="250px" viewBox="-125 -125 250 250" overflow="scroll" xml:space="preserve"><polygon id="gearpoly0" data-id="0" class="gear" fill="#ddd" stroke="#444" stroke-width="1" stroke-miterlimit="10" points="71.25,0 86.6157,-0.0002 86.764,-0.0066 87.0761,-0.0331 87.5503,-0.094 88.1839,-0.2035 88.9732,-0.3755 89.9137,-0.6238 90.9999,-0.9617 92.2256,-1.4023 93.5834,-1.9585 95.0654,-2.6424 96.6627,-3.4657 98.3657,-4.4398 100.1641,-5.5751 102.0467,-6.8819 104.0017,-8.3692 106.0167,-10.0459 108.0787,-11.9197 110.1741,-13.9978 112.2888,-16.2863 114.4082,-18.7907 116.5172,-21.5156 118.6006,-24.4645 120.6425,-27.6401 119.6816,-31.5418 116.3986,-33.4061 113.1842,-35.0504 110.051,-36.4843 107.011,-37.7182 104.0755,-38.763 101.2547,-39.6304 98.5584,-40.3324 95.9952,-40.8817 93.5731,-41.2912 91.299,-41.5743 89.1791,-41.7447 87.2185,-41.8166 85.4215,-41.8041 83.7914,-41.7216 82.3306,-41.5836 81.0405,-41.4048 79.9216,-41.1996 78.9733,-40.9827 78.1944,-40.7685 77.5824,-40.5713 77.1342,-40.4051 76.8454,-40.2836 76.7111,-40.2205 63.1024,-33.0854 50.3814,-50.3814 61.2465,-61.2467 61.3467,-61.356 61.5487,-61.5955 61.8409,-61.9739 62.2115,-62.4993 62.648,-63.1791 63.1375,-64.0197 63.6667,-65.0267 64.2217,-66.2049 64.7886,-67.5583 65.353,-69.0898 65.9002,-70.8015 66.4157,-72.6945 66.8845,-74.7689 67.2917,-77.0241 67.6223,-79.4582 67.8616,-82.0687 67.9947,-84.8517 68.007,-87.8028 67.884,-90.9163 67.6118,-94.1859 67.1763,-97.6039 66.5643,-101.1622 65.7626,-104.8516 62.3243,-106.9311 58.6846,-105.9279 55.249,-104.8176 52.0195,-103.6161 48.9975,-102.339 46.1829,-101.0021 43.575,-99.6209 41.172,-98.2107 38.9711,-96.7866 36.9689,-95.3634 35.1607,-93.9556 33.5411,-92.5771 32.104,-91.2416 30.8422,-89.9621 29.7479,-88.7511 28.8125,-87.6206 28.0267,-86.5819 27.3805,-85.6456 26.8634,-84.8218 26.4641,-84.1195 26.1708,-83.5473 25.9714,-83.1128 25.8531,-82.8227 25.8028,-82.6831 21.2252,-68.0151 0,-71.25 -0.0002,-86.6157 -0.0066,-86.764 -0.0331,-87.0761 -0.094,-87.5503 -0.2035,-88.1839 -0.3755,-88.9732 -0.6238,-89.9137 -0.9617,-90.9999 -1.4023,-92.2256 -1.9585,-93.5834 -2.6424,-95.0654 -3.4657,-96.6627 -4.4398,-98.3657 -5.5751,-100.1641 -6.8819,-102.0467 -8.3692,-104.0017 -10.0459,-106.0167 -11.9197,-108.0787 -13.9978,-110.1741 -16.2863,-112.2888 -18.7907,-114.4082 -21.5156,-116.5172 -24.4645,-118.6006 -27.6401,-120.6425 -31.5418,-119.6816 -33.4061,-116.3986 -35.0504,-113.1842 -36.4843,-110.051 -37.7182,-107.011 -38.763,-104.0755 -39.6304,-101.2547 -40.3324,-98.5584 -40.8817,-95.9952 -41.2912,-93.5731 -41.5743,-91.299 -41.7447,-89.1791 -41.8166,-87.2185 -41.8041,-85.4215 -41.7216,-83.7914 -41.5836,-82.3306 -41.4048,-81.0405 -41.1996,-79.9216 -40.9827,-78.9733 -40.7685,-78.1944 -40.5713,-77.5824 -40.4051,-77.1342 -40.2836,-76.8454 -40.2205,-76.7111 -33.0854,-63.1024 -50.3814,-50.3814 -61.2467,-61.2465 -61.356,-61.3467 -61.5955,-61.5487 -61.9739,-61.8409 -62.4993,-62.2115 -63.1791,-62.648 -64.0197,-63.1375 -65.0267,-63.6667 -66.2049,-64.2217 -67.5583,-64.7886 -69.0898,-65.353 -70.8015,-65.9002 -72.6945,-66.4157 -74.7689,-66.8845 -77.0241,-67.2917 -79.4582,-67.6223 -82.0687,-67.8616 -84.8517,-67.9947 -87.8028,-68.007 -90.9163,-67.884 -94.1859,-67.6118 -97.6039,-67.1763 -101.1622,-66.5643 -104.8516,-65.7626 -106.9311,-62.3243 -105.9279,-58.6846 -104.8176,-55.249 -103.6161,-52.0195 -102.339,-48.9975 -101.0021,-46.1829 -99.6209,-43.575 -98.2107,-41.172 -96.7866,-38.9711 -95.3634,-36.9689 -93.9556,-35.1607 -92.5771,-33.5411 -91.2416,-32.104 -89.9621,-30.8422 -88.7511,-29.7479 -87.6206,-28.8125 -86.5819,-28.0267 -85.6456,-27.3805 -84.8218,-26.8634 -84.1195,-26.4641 -83.5473,-26.1708 -83.1128,-25.9714 -82.8227,-25.8531 -82.6831,-25.8028 -68.0151,-21.2252 -71.25,0 -86.6157,0.0002 -86.764,0.0066 -87.0761,0.0331 -87.5503,0.094 -88.1839,0.2035 -88.9732,0.3755 -89.9137,0.6238 -90.9999,0.9617 -92.2256,1.4023 -93.5834,1.9585 -95.0654,2.6424 -96.6627,3.4657 -98.3657,4.4398 -100.1641,5.5751 -102.0467,6.8819 -104.0017,8.3692 -106.0167,10.0459 -108.0787,11.9197 -110.1741,13.9978 -112.2888,16.2863 -114.4082,18.7907 -116.5172,21.5156 -118.6006,24.4645 -120.6425,27.6401 -119.6816,31.5418 -116.3986,33.4061 -113.1842,35.0504 -110.051,36.4843 -107.011,37.7182 -104.0755,38.763 -101.2547,39.6304 -98.5584,40.3324 -95.9952,40.8817 -93.5731,41.2912 -91.299,41.5743 -89.1791,41.7447 -87.2185,41.8166 -85.4215,41.8041 -83.7914,41.7216 -82.3306,41.5836 -81.0405,41.4048 -79.9216,41.1996 -78.9733,40.9827 -78.1944,40.7685 -77.5824,40.5713 -77.1342,40.4051 -76.8454,40.2836 -76.7111,40.2205 -63.1024,33.0854 -50.3814,50.3814 -61.2465,61.2467 -61.3467,61.356 -61.5487,61.5955 -61.8409,61.9739 -62.2115,62.4993 -62.648,63.1791 -63.1375,64.0197 -63.6667,65.0267 -64.2217,66.2049 -64.7886,67.5583 -65.353,69.0898 -65.9002,70.8015 -66.4157,72.6945 -66.8845,74.7689 -67.2917,77.0241 -67.6223,79.4582 -67.8616,82.0687 -67.9947,84.8517 -68.007,87.8028 -67.884,90.9163 -67.6118,94.1859 -67.1763,97.6039 -66.5643,101.1622 -65.7626,104.8516 -62.3243,106.9311 -58.6846,105.9279 -55.249,104.8176 -52.0195,103.6161 -48.9975,102.339 -46.1829,101.0021 -43.575,99.6209 -41.172,98.2107 -38.9711,96.7866 -36.9689,95.3634 -35.1607,93.9556 -33.5411,92.5771 -32.104,91.2416 -30.8422,89.9621 -29.7479,88.7511 -28.8125,87.6206 -28.0267,86.5819 -27.3805,85.6456 -26.8634,84.8218 -26.4641,84.1195 -26.1708,83.5473 -25.9714,83.1128 -25.8531,82.8227 -25.8028,82.6831 -21.2252,68.0151 0,71.25 0.0002,86.6157 0.0066,86.764 0.0331,87.0761 0.094,87.5503 0.2035,88.1839 0.3755,88.9732 0.6238,89.9137 0.9617,90.9999 1.4023,92.2256 1.9585,93.5834 2.6424,95.0654 3.4657,96.6627 4.4398,98.3657 5.5751,100.1641 6.8819,102.0467 8.3692,104.0017 10.0459,106.0167 11.9197,108.0787 13.9978,110.1741 16.2863,112.2888 18.7907,114.4082 21.5156,116.5172 24.4645,118.6006 27.6401,120.6425 31.5418,119.6816 33.4061,116.3986 35.0504,113.1842 36.4843,110.051 37.7182,107.011 38.763,104.0755 39.6304,101.2547 40.3324,98.5584 40.8817,95.9952 41.2912,93.5731 41.5743,91.299 41.7447,89.1791 41.8166,87.2185 41.8041,85.4215 41.7216,83.7914 41.5836,82.3306 41.4048,81.0405 41.1996,79.9216 40.9827,78.9733 40.7685,78.1944 40.5713,77.5824 40.4051,77.1342 40.2836,76.8454 40.2205,76.7111 33.0854,63.1024 50.3814,50.3814 61.2467,61.2465 61.356,61.3467 61.5955,61.5487 61.9739,61.8409 62.4993,62.2115 63.1791,62.648 64.0197,63.1375 65.0267,63.6667 66.2049,64.2217 67.5583,64.7886 69.0898,65.353 70.8015,65.9002 72.6945,66.4157 74.7689,66.8845 77.0241,67.2917 79.4582,67.6223 82.0687,67.8616 84.8517,67.9947 87.8028,68.007 90.9163,67.884 94.1859,67.6118 97.6039,67.1763 101.1622,66.5643 104.8516,65.7626 106.9311,62.3243 105.9279,58.6846 104.8176,55.249 103.6161,52.0195 102.339,48.9975 101.0021,46.1829 99.6209,43.575 98.2107,41.172 96.7866,38.9711 95.3634,36.9689 93.9556,35.1607 92.5771,33.5411 91.2416,32.104 89.9621,30.8422 88.7511,29.7479 87.6206,28.8125 86.5819,28.0267 85.6456,27.3805 84.8218,26.8634 84.1195,26.4641 83.5473,26.1708 83.1128,25.9714 82.8227,25.8531 82.6831,25.8028 68.0151,21.2252 "/><g class="guides"><polyline fill="none" stroke="#444" stroke-width="0.5" stroke-miterlimit="10" points="10,0 -10,0"/><polyline fill="none" stroke="#444" stroke-width="0.5" stroke-miterlimit="10" points="0,10 0,-10"/></g><circle fill="#c00" class="firstmarker" stroke="none" stroke-miterlimit="10" cx="97.0991" cy="-23.9115" r="9.8125"/><g class="geartext"><g class="text"><polyline fill="none" stroke="#444" stroke-width="0.5" stroke-linecap="square" stroke-miterlimit="1"  points="-28.57 -46.16 -30 -45.25 -31.4 -44.29 -32.76 -43.28 -34.1 -42.24 "/><polyline fill="none" stroke="#444" stroke-width="0.5" stroke-linecap="square" stroke-miterlimit="1"  points="-29.43 -41.52 -33.36 -47.05 "/><polyline fill="none" stroke="#444" stroke-width="0.5" stroke-linecap="square" stroke-miterlimit="1"  points="-30.35 -49.05 -30.93 -46.66 -31.4 -44.29 -31.74 -41.93 -31.97 -39.6 "/><polyline fill="none" stroke="#444" stroke-width="0.5" stroke-linecap="square" stroke-miterlimit="1"  points="-26.78 -43.28 -29.06 -43.83 -31.4 -44.29 -33.79 -44.64 -36.23 -44.88 "/><polyline fill="none" stroke="#444" stroke-width="0.5" stroke-linecap="square" stroke-miterlimit="1"  points="-19.72 -46.92 -20.47 -44.73 -21.86 -44.07 -24.03 -44.86 -27.23 -50.85 -26.38 -53.19 -24.71 -53.99 -22.35 -53.17 -19.72 -46.92 "/><polyline fill="none" stroke="#444" stroke-width="0.5" stroke-linecap="square" stroke-miterlimit="1"  points="-3.22 -59.29 -2.67 -49.12 -4.42 -51.55 -6.32 -53.92 -8.38 -56.21 -10.58 -58.42 -8.77 -48.41 "/><polyline fill="none" stroke="#444" stroke-width="0.5" stroke-linecap="square" stroke-miterlimit="1"  points="7.44 -55.49 5.7 -55.69 3.96 -55.84 2.21 -55.94 0.46 -55.98 "/><polyline fill="none" stroke="#444" stroke-width="0.5" stroke-linecap="square" stroke-miterlimit="1"  points="6.99 -52.12 5.36 -52.32 3.72 -52.46 2.08 -52.55 0.44 -52.59 "/><polyline fill="none" stroke="#444" stroke-width="0.5" stroke-linecap="square" stroke-miterlimit="1"  points="12.22 -52.89 10.23 -51.58 9.9 -49.92 11.07 -47.93 12.57 -47.56 14.05 -47.15 16.05 -48.3 16.58 -49.91 15.5 -52.03 13.87 -52.48 12.22 -52.89 10.89 -54.91 11.22 -56.58 13.37 -57.85 15.17 -57.41 16.95 -56.9 18.19 -54.74 17.65 -53.13 15.5 -52.03 "/><polyline fill="none" stroke="#444" stroke-width="0.5" stroke-linecap="square" stroke-miterlimit="1"  points="27.89 -46.57 29.33 -45.68 30.74 -44.74 32.13 -43.76 34.52 -44.07 35.57 -45.4 35.14 -47.86 33.63 -48.94 32.08 -49.96 30.5 -50.94 25.27 -42.21 "/><polyline fill="none" stroke="#444" stroke-width="0.5" stroke-linecap="square" stroke-miterlimit="1"  points="32.7 -36.76 37.21 -41.83 "/><polyline fill="none" stroke="#444" stroke-width="0.5" stroke-linecap="square" stroke-miterlimit="1"  points="38.34 -43.09 39.46 -44.36 "/><polyline fill="none" stroke="#444" stroke-width="0.5" stroke-linecap="square" stroke-miterlimit="1"  points="40.32 -31.05 38.02 -31.22 38.3 -33.51 44.69 -39.1 "/><polyline fill="none" stroke="#444" stroke-width="0.5" stroke-linecap="square" stroke-miterlimit="1"  points="44.35 -34.16 43.26 -35.53 42.13 -36.86 40.96 -38.16 39.75 -39.42 "/><polyline fill="none" stroke="#444" stroke-width="0.5" stroke-linecap="square" stroke-miterlimit="1"  points="43.89 -22.23 43.17 -23.59 42.42 -24.92 41.62 -26.24 42.18 -28.47 44.99 -30.37 47.36 -29.86 48.27 -28.36 49.13 -26.84 49.94 -25.29 "/><polyline fill="none" stroke="#444" stroke-width="0.5" stroke-linecap="square" stroke-miterlimit="1"  points="48.31 -20.78 50.51 -19.88 52.71 -18.87 53.27 -17.21 52.15 -15.07 47.26 -13.65 "/><polyline fill="none" stroke="#444" stroke-width="0.5" stroke-linecap="square" stroke-miterlimit="1"  points="45.19 -19.44 54.54 -23.46 "/><polyline fill="none" stroke="#444" stroke-width="0.5" stroke-linecap="square" stroke-miterlimit="1"  points="49.1 -3.07 49.17 -1.54 49.2 0 49.17 1.54 50.79 3.18 57.57 3.6 59.35 1.86 59.38 0 59.35 -1.86 59.26 -3.71 "/><polyline fill="none" stroke="#444" stroke-width="0.5" stroke-linecap="square" stroke-miterlimit="1"  points="59.35 -1.86 49.17 -1.54 "/><polyline fill="none" stroke="#444" stroke-width="0.5" stroke-linecap="square" stroke-miterlimit="1"  points="54.24 13.85 54.65 12.15 55 10.44 55.3 8.71 55.55 6.98 "/><polyline fill="none" stroke="#444" stroke-width="0.5" stroke-linecap="square" stroke-miterlimit="1"  points="50.95 13.01 51.34 11.41 51.67 9.8 51.95 8.18 52.18 6.56 "/><polyline fill="none" stroke="#444" stroke-width="0.5" stroke-linecap="square" stroke-miterlimit="1"  points="44.56 20.84 45.19 19.44 45.78 18.02 46.32 16.58 46.81 15.12 50.04 16.17 51.11 18.3 50.51 19.88 49.87 21.45 50.71 23.72 52.25 24.44 54.54 23.46 55.25 21.75 55.9 20.01 54.89 17.73 "/><polyline fill="none" stroke="#444" stroke-width="0.5" stroke-linecap="square" stroke-miterlimit="1"  points="43.01 33.12 41.95 34.45 40.86 35.74 39.72 37 39.75 39.42 40.95 40.62 43.44 40.47 44.69 39.1 45.89 37.68 47.04 36.23 38.98 30.02 "/><polyline fill="none" stroke="#444" stroke-width="0.5" stroke-linecap="square" stroke-miterlimit="1"  points="31.7 46.14 33.13 45.13 34.52 44.07 35.88 42.97 37.21 41.83 "/><polyline fill="none" stroke="#444" stroke-width="0.5" stroke-linecap="square" stroke-miterlimit="1"  points="29.78 43.34 31.12 42.39 32.43 41.4 33.71 40.36 34.95 39.29 "/><polyline fill="none" stroke="#444" stroke-width="0.5" stroke-linecap="square" stroke-miterlimit="1"  points="21.18 48.13 22.68 47.45 24.15 46.72 25.59 45.94 27.02 45.12 26.7 47.92 26.22 50.74 25.6 53.57 21.21 44.39 "/><polyline fill="none" stroke="#444" stroke-width="0.5" stroke-linecap="square" stroke-miterlimit="1"  points="10.56 53.25 8.89 53.55 7.21 53.8 5.53 54 3.96 55.84 4.08 57.53 6.05 59.07 7.89 58.85 9.73 58.57 11.55 58.24 9.57 48.26 "/><polyline fill="none" stroke="#444" stroke-width="0.5" stroke-linecap="square" stroke-miterlimit="1"  points="0.41 49.19 0.44 52.59 -1.28 55.97 -3.22 59.29 -4.78 55.78 -6.12 52.23 -5.73 48.86 "/><polyline fill="none" stroke="#444" stroke-width="0.5" stroke-linecap="square" stroke-miterlimit="1"  points="0.44 52.59 -1.21 52.58 -2.85 52.51 -4.49 52.4 -6.12 52.23 "/><polyline fill="none" stroke="#444" stroke-width="0.5" stroke-linecap="square" stroke-miterlimit="1"  points="-16.77 53.41 -15.09 53.91 -13.4 54.35 -11.69 54.75 -9.98 55.09 "/><polyline fill="none" stroke="#444" stroke-width="0.5" stroke-linecap="square" stroke-miterlimit="1"  points="-15.75 50.17 -14.18 50.64 -12.59 51.06 -10.99 51.43 -9.37 51.75 "/><polyline fill="none" stroke="#444" stroke-width="0.5" stroke-linecap="square" stroke-miterlimit="1"  points="-20.68 53.84 -23.01 54.74 -24.71 53.99 -26.38 53.19 -27.23 50.85 -26.43 49.35 -24.12 48.63 -24.83 46.36 -24.03 44.86 -21.86 44.07 -20.47 44.73 -19.07 45.35 -18.25 47.51 "/><polyline fill="none" stroke="#444" stroke-width="0.5" stroke-linecap="square" stroke-miterlimit="1"  points="-22.59 49.36 -24.12 48.63 "/><polyline fill="none" stroke="#444" stroke-width="0.5" stroke-linecap="square" stroke-miterlimit="1"  points="-30.72 40.58 -28.45 40.13 -27.18 41 -26.78 43.28 -30.35 49.05 -32.81 49.49 -34.34 48.44 -34.81 45.99 -30.72 40.58 "/></g></g><g class="guides gearguides" opacity="0.2"><circle class="pitch" fill="none" stroke="#f00" stroke-miterlimit="10" cx="0" cy="0" r="100"/><circle class="outer" fill="none" stroke="#ccc" stroke-miterlimit="10" stroke-dasharray="2,2" cx="0" cy="0" r="125"/><circle class="base" fill="none" stroke="#00f" stroke-miterlimit="10" stroke-dasharray="2,2" cx="0" cy="0" r="86.6"/></g></svg>