<svg width="99" height="82" viewBox="0 0 99 82" fill="none" xmlns="http://www.w3.org/2000/svg">
<path d="M30 63C30 46.8509 29 30.9168 29 14.7778C29 12.8023 27.7285 3.71591 29.2222 2.22222C29.7854 1.65906 30.3122 3.20107 30.5556 3.44445C31.3048 4.1937 32.5847 3.99152 33.5 4.5C35.1207 5.40041 38.1435 5.25464 39.4444 6.55556C41.1247 8.23579 41.8874 8.50381 44.2222 9.22222C47.1477 10.1224 48.8205 12.5006 51.4444 14C54.0625 15.4961 56.7891 20.7754 58 23.5C58.721 25.1222 60.4426 32.8582 58.4444 34C56.6494 35.0257 55.4606 36.2142 53.4444 37.2222C51.8269 38.031 49.6816 37.9088 48.2222 39.2222C44.8657 42.2431 38.9679 41.4587 35 43.2222C30.8766 45.0549 27.0241 40.7072 31 38.2222C34.6176 35.9612 35.5796 38.4264 36 42C36.6093 47.1786 43.2689 51.2912 45.0556 56.0556C45.758 57.9286 52.5492 68.8324 50.9444 61.6111C50.5744 59.9459 50 52.9685 50 54.5C50 56.7841 51 58.7395 51 61C51 61.7635 51.3957 58.613 52 57.5556C52.5543 56.5855 54.302 60.1542 54.7778 61C55.1494 61.6608 55 55.7288 55 54.2222C55 50.4718 55.6865 55.0257 55.9444 56.4444C56.4769 59.3729 56.043 57.2947 57.7778 59.2222C58.5395 60.0686 59 64.4815 59 60.5556C59 58.1111 59 55.6667 59 53.2222C59 50.7762 58.9032 33.2932 60.7778 41C61.852 45.4162 63.287 49.522 64.5 53.8889C65.0637 55.9181 67 58.5973 67 60.3889C67 62.5185 67 56.1296 67 54C67 53.1103 67 57.9064 67 59C67 61.0501 67.9847 62 70 62C71.247 62 75.0783 63.0888 71.8889 64C68.6247 64.9326 65.4279 66 62 66C58.3872 66 60.4733 66.3948 62.5 65.9444C67.6432 64.8015 72.6298 63.2494 77.4444 61.2222C80.0664 60.1183 80 60.6847 80 57.5C80 55.938 78 52.8759 78 56C78 61.6612 76.1679 64 70.2222 64C62.5664 64 54.1133 65.6725 46.5 66.6111C34.5887 68.0796 23.1297 71.4849 12 75.7778C8.77732 77.0208 5.79769 78.6698 2.61111 79.9445C0.734519 80.6951 6.61357 79.2256 8.5 78.5C20.5433 73.8679 34.0367 72.6511 46.0556 68.4445C53.946 65.6828 60.7184 62.0565 68.9444 60C73.742 58.8006 78.3694 58.1538 83 56.5C85.8475 55.483 95.6758 57.6484 97 55" stroke="white" stroke-width="3" stroke-linecap="round"/>
</svg>
